<svg 
          width="56.0000114440918" 
          height="56.0000114440918" fill="none" 
          xmlns="http://www.w3.org/2000/svg">
          <path d="M 0 28 C 0 33.53787708282471 1.6421716213226318 38.95138931274414 4.718851089477539 43.555965423583984 C 7.795530557632446 48.16054153442383 12.168533325195312 51.74937200546265 17.28486442565918 53.86862564086914 C 22.401195526123047 55.987879276275635 28.031060218811035 56.542372703552246 33.462528228759766 55.46198654174805 C 38.893996238708496 54.38160037994385 43.88311815261841 51.714858531951904 47.798988342285156 47.798988342285156 C 51.714858531951904 43.88311815261841 54.38160037994385 38.893996238708496 55.46198654174805 33.462528228759766 C 56.542372703552246 28.031060218811035 55.987879276275635 22.401195526123047 53.86862564086914 17.28486442565918 C 51.74937200546265 12.168533325195312 48.16054153442383 7.795530557632446 43.555965423583984 4.718851089477539 C 38.95138931274414 1.6421716213226318 33.53787708282471 -6.661338147750939e-15 28 0 C 20.573938369750977 6.217248937900877e-15 13.452028274536133 2.949991226196289 8.201009750366211 8.201009750366211 C 2.949991226196289 13.452028274536133 5.329070518200751e-15 20.573938369750977 0 28 Z M 12 26 L 36.29999923706055 26 L 25.139999389648438 14.785999298095703 L 28 12 L 44 28 L 28 44 L 25.139999389648438 41.145999908447266 L 36.29999923706055 30 L 12 30 L 12 26 Z" fill="rgb(255,255,255)"/>
        </svg>